# xmcd
#
# Track frame offsets:
#	150
#	18141
#	32450
#	53501
#	72497
#	88554
#	115577
#	137890
#
# Disc length: 2110 seconds
#
# Revision: 0
# Processed by: cddbd v1.5.2PL0 Copyright (c) Steve Scherf et al.
# Submitted via: EasyCDDAExtractor 10.0.5.1
#
DISCID=5b083c08
DTITLE=김목경 - 6집 - Blues
DYEAR=2008
DGENRE=Blues
TTITLE0=여우비
TTITLE1=다시 처음 이라오
TTITLE2=라디오를 켜려다
TTITLE3=아침에 깨어보니
TTITLE4=Yesterday's Love
TTITLE5=Mok's Blues
TTITLE6=3일간의 여행.(Inst')
TTITLE7=어느 60대 노부부의 이야기
EXTD=
EXTT0=
EXTT1=
EXTT2=
EXTT3=
EXTT4=
EXTT5=
EXTT6=
EXTT7=
PLAYORDER=
